<svg aria-hidden="true" version="1.1" xmlns="http://www.w3.org/2000/svg" xmlns:xlink="http://www.w3.org/1999/xlink">
	<defs>
		<symbol id="google-symbol" viewBox="0 0 32 32">
			<path fill="#2196f3" style="fill: var(--color1, #2196f3)" d="M30.567 13.038c0.136 0 0.246 0.115 0.246 0.258v2.704c0 1.012-0.090 2.002-0.262 2.962-1.331 7.457-7.598 13.092-15.111 13.038-8.43-0.061-15.176-7.2-15.158-16.036 0.019-8.82 6.846-15.964 15.265-15.964 4.125 0 7.867 1.715 10.615 4.501 0.099 0.101 0.102 0.266 0.004 0.369l-3.65 3.826c-0.094 0.098-0.246 0.101-0.342 0.005-1.725-1.721-4.058-2.777-6.627-2.777-5.305 0-9.577 4.446-9.614 10.007-0.036 5.597 4.282 10.146 9.614 10.146 4.326 0 7.985-2.995 9.191-7.115h-8.945c-0.136 0-0.246-0.115-0.246-0.258v-5.408c0-0.142 0.11-0.258 0.246-0.258l14.774 0z">
			</path>
			<path fill="#1e88e5" style="fill: var(--color2, #1e88e5)" d="M30.567 13.038h-1.843c0.136 0 0.246 0.115 0.246 0.258v2.704c0 1.012-0.090 2.002-0.262 2.962-1.27 7.114-7.033 12.57-14.083 13.009 0.27 0.017 0.541 0.026 0.815 0.028 7.513 0.054 13.78-5.581 15.111-13.038 0.172-0.96 0.262-1.95 0.262-2.962v-2.704c0-0.142-0.11-0.258-0.246-0.258z">
			</path>
			<path fill="#f44336" style="fill: var(--color3, #f44336)" d="M6.815 11.78l-4.636-3.511c2.601-4.931 7.613-8.269 13.368-8.269 4.125 0 7.867 1.715 10.615 4.501 0.099 0.101 0.102 0.266 0.004 0.369l-3.65 3.826c-0.094 0.098-0.245 0.101-0.342 0.005-1.724-1.721-4.058-2.777-6.627-2.777-3.872 0-7.209 2.399-8.732 5.857z">
			</path>
			<path fill="#e53935" style="fill: var(--color4, #e53935)" d="M5.477 10.767l1.338 1.014c1.39-3.156 4.292-5.429 7.732-5.802 0.026-0.003 0.051-0.006 0.077-0.009-0.303-0.030-0.61-0.046-0.92-0.046-3.498 0-6.546 1.933-8.228 4.843z">
			</path>
			<path fill="#e53935" style="fill: var(--color4, #e53935)" d="M24.319 4.501c0.099 0.101 0.102 0.266 0.004 0.369l-2.962 3.105c0.284 0.226 0.555 0.468 0.813 0.726 0.096 0.096 0.248 0.094 0.342-0.005l3.65-3.826c0.098-0.102 0.095-0.268-0.004-0.369-2.748-2.786-6.49-4.501-10.615-4.501-0.31 0-0.617 0.011-0.922 0.030 3.759 0.235 7.152 1.894 9.694 4.471z">
			</path>
			<path fill="#4caf50" style="fill: var(--color5, #4caf50)" d="M26.745 26.874c-2.788 3.153-6.773 5.126-11.198 5.126-5.976 0-11.151-3.6-13.656-8.844l4.733-3.4c1.42 3.704 4.881 6.32 8.923 6.32 2.537 0 4.844-1.030 6.562-2.713l4.636 3.51z">
			</path>
			<path fill="#43a047" style="fill: var(--color6, #43a047)" d="M6.624 19.756l-1.396 1.003c1.621 3.165 4.809 5.318 8.476 5.318 0.31 0 0.617-0.016 0.919-0.046-3.64-0.364-6.689-2.855-8-6.274z">
			</path>
			<path fill="#43a047" style="fill: var(--color6, #43a047)" d="M15.547 32c4.425 0 8.41-1.974 11.198-5.126l-1.135-0.86c-2.618 3.414-6.544 5.679-10.982 5.957 0.304 0.019 0.611 0.029 0.919 0.029z">
			</path>
			<path fill="#ffc107" style="fill: var(--color7, #ffc107)" d="M5.934 16c0 1.328 0.245 2.595 0.69 3.756l-4.733 3.4c-1.030-2.153-1.609-4.584-1.609-7.156 0-2.804 0.688-5.439 1.897-7.731l4.636 3.511c-0.566 1.283-0.881 2.713-0.881 4.22z">
			</path>
			<path fill="#ffb300" style="fill: var(--color8, #ffb300)" d="M5.228 20.759l1.396-1.003c-0.445-1.161-0.69-2.429-0.69-3.756 0-1.507 0.316-2.937 0.881-4.22l-1.338-1.014c-0.869 1.504-1.373 3.269-1.386 5.164-0.011 1.747 0.402 3.392 1.137 4.829z">
			</path>
		</symbol>
	</defs>
</svg>
